<svg version="1.1" xmlns="http://www.w3.org/2000/svg" xmlns:xlink="http://www.w3.org/1999/xlink" width="180.12725" height="150.62899" viewBox="0,0,180.12725,150.62899"><g transform="translate(-164.88626,-105.02383)"><g data-paper-data="{&quot;isPaintingLayer&quot;:true}" fill="#ffffff" fill-rule="nonzero" stroke="#ffffff" stroke-width="5" stroke-linecap="butt" stroke-linejoin="miter" stroke-miterlimit="10" stroke-dasharray="" stroke-dashoffset="0" style="mix-blend-mode: normal"><path d="M297.90485,141.27338c-12.329,-21.52455 -33.464,-33.74954 -59.55531,-33.74954c-39.19193,0 -70.96328,32.60016 -70.96328,72.8145c0,40.21434 31.77134,72.81449 70.96328,72.81449c24.57817,0 46.23793,-12.82109 58.9735,-32.30081l-35.08806,-22.26544c-5.73587,8.77331 -15.49103,14.5477 -26.56059,14.5477c-17.65133,0 -31.96056,-14.68251 -31.96056,-32.79431c0,-18.1118 14.30923,-32.79431 31.96056,-32.79431c11.75105,0 22.02088,6.50727 27.57363,16.20153z"/><path d="M333.07881,178.65809c0,15.05536 -11.50736,27.26013 -25.70241,27.26013c-14.19505,0 -25.70241,-12.20478 -25.70241,-27.26013c0,-15.05536 11.50736,-27.26013 25.70241,-27.26013c14.19505,0 25.70241,12.20478 25.70241,27.26013z"/><path d="M341.53687,158.5616c4.5346,3.9955 -7.15329,15.67406 -26.10563,26.0848c-18.95234,10.41074 -37.99226,15.61132 -42.52686,11.61582c-4.5346,-3.9955 7.15329,-15.67406 26.10563,-26.0848c18.95234,-10.41074 37.99226,-15.61132 42.52686,-11.61582z"/></g></g></svg>